<svg width="25" height="24" viewBox="0 0 25 24" fill="none" xmlns="http://www.w3.org/2000/svg">
<g id="Group 49365">
<g id="Vector">
<path d="M18.5 20C18.5 21.1 19.4 22 20.5 22C21.6 22 22.5 21.1 22.5 20C22.5 18.9 21.6 18 20.5 18C19.4 18 18.5 18.9 18.5 20Z" fill="black"/>
<path d="M7.5 20C7.5 21.1 8.4 22 9.5 22C10.6 22 11.5 21.1 11.5 20C11.5 18.9 10.6 18 9.5 18C8.4 18 7.5 18.9 7.5 20Z" fill="black"/>
</g>
<path id="Vector_2" d="M8.86223 14.9972L8.83173 14.9728L8.79923 14.9512C8.4612 14.7258 8.2463 14.3733 8.07365 13.7814L6.4 5.90543V5.90518V5.90461V5.90405V5.90347V5.9029V5.90233V5.90175V5.90117V5.90058V5.9V5.80864L6.38164 5.71915L5.58164 1.81915L5.43412 1.1H4.7H1.5C1.45015 1.1 1.42328 1.0918 1.41371 1.08811C1.41324 1.08794 1.41281 1.08776 1.4124 1.0876C1.41224 1.08719 1.41206 1.08676 1.41189 1.08629C1.4082 1.07672 1.4 1.04985 1.4 1C1.4 0.950153 1.4082 0.923278 1.41189 0.913706C1.41206 0.913242 1.41224 0.912807 1.4124 0.912401C1.41281 0.912236 1.41324 0.912064 1.41371 0.911886C1.42328 0.908204 1.45015 0.9 1.5 0.9H5.5C5.56828 0.9 5.59253 0.919059 5.59395 0.920176L5.59396 0.920187C5.59578 0.921612 5.59807 0.923694 5.60121 0.928906C5.60441 0.934213 5.61186 0.948437 5.61748 0.976504L6.41748 4.9765L6.56218 5.7H7.3H23.5C23.5267 5.7 23.5443 5.70232 23.5546 5.70433L23.5946 5.76433C23.5957 5.77786 23.5968 5.7945 23.5977 5.81483C23.5989 5.84445 23.5995 5.87564 23.5998 5.91195L22.0175 13.8235L22.0126 13.848L22.009 13.8727C21.9481 14.2994 21.705 14.6816 21.3008 14.9512L21.2683 14.9728L21.2378 14.9972C20.9429 15.2331 20.3627 15.4 19.9 15.4H10.1C9.58406 15.4 9.18748 15.2574 8.86223 14.9972Z" stroke="black" stroke-width="1.8"/>
</g>
</svg>
