<svg width="22" height="22" viewBox="0 0 22 22" fill="none" xmlns="http://www.w3.org/2000/svg">
<g clip-path="url(#clip0_648_44785)">
<path d="M4.58295 9.16668H6.41625C8.24955 9.16668 9.16619 8.25004 9.16619 6.41674V4.58344C9.16619 2.75014 8.24955 1.8335 6.41625 1.8335H4.58295C2.74966 1.8335 1.83301 2.75014 1.83301 4.58344V6.41674C1.83301 8.25004 2.74966 9.16668 4.58295 9.16668Z" fill="white" stroke="white" stroke-width="1.7" stroke-miterlimit="10" stroke-linecap="round" stroke-linejoin="round"/>
<path d="M15.581 9.16668H17.4143C19.2476 9.16668 20.1642 8.25004 20.1642 6.41674V4.58344C20.1642 2.75014 19.2476 1.8335 17.4143 1.8335H15.581C13.7477 1.8335 12.8311 2.75014 12.8311 4.58344V6.41674C12.8311 8.25004 13.7477 9.16668 15.581 9.16668Z" fill="white" stroke="white" stroke-width="1.7" stroke-miterlimit="10" stroke-linecap="round" stroke-linejoin="round"/>
<path d="M15.581 20.1672H17.4143C19.2476 20.1672 20.1642 19.2505 20.1642 17.4172V15.5839C20.1642 13.7506 19.2476 12.834 17.4143 12.834H15.581C13.7477 12.834 12.8311 13.7506 12.8311 15.5839V17.4172C12.8311 19.2505 13.7477 20.1672 15.581 20.1672Z" fill="white" stroke="white" stroke-width="1.7" stroke-miterlimit="10" stroke-linecap="round" stroke-linejoin="round"/>
<path d="M4.58295 20.1672H6.41625C8.24955 20.1672 9.16619 19.2505 9.16619 17.4172V15.5839C9.16619 13.7506 8.24955 12.834 6.41625 12.834H4.58295C2.74966 12.834 1.83301 13.7506 1.83301 15.5839V17.4172C1.83301 19.2505 2.74966 20.1672 4.58295 20.1672Z" fill="white" stroke="white" stroke-width="1.7" stroke-miterlimit="10" stroke-linecap="round" stroke-linejoin="round"/>
</g>
<defs>
<clipPath id="clip0_648_44785">
<rect width="22" height="22" fill="white"/>
</clipPath>
</defs>
</svg>
