<svg width="24" height="24" viewBox="0 0 24 24" fill="none" xmlns="http://www.w3.org/2000/svg">
<g id="Group 49367">
<g id="&#208;&#161;&#208;&#187;&#208;&#190;&#208;&#185; 1">
<path id="Vector" d="M6.94435 19.5664C8.44048 20.566 10.1994 21.0997 11.9988 21.1L6.94435 19.5664ZM6.94435 19.5664C5.44785 18.5665 4.28147 17.1452 3.59271 15.4824M6.94435 19.5664L3.59271 15.4824M3.59271 15.4824C2.90394 13.8196 2.72373 11.9899 3.07486 10.2247M3.59271 15.4824L3.07486 10.2247M3.07486 10.2247C3.42599 8.45946 4.29269 6.83799 5.56536 5.56534M3.07486 10.2247L5.56536 5.56534M5.56536 5.56534C6.83803 4.29268 8.45951 3.42598 10.2248 3.07486M5.56536 5.56534L10.2248 3.07486M10.2248 3.07486C11.99 2.72373 13.8197 2.90394 15.4825 3.5927M10.2248 3.07486L15.4825 3.5927M15.4825 3.5927C17.1454 4.28146 18.5666 5.44783 19.5665 6.94432M15.4825 3.5927L19.5665 6.94432M19.5665 6.94432C20.5662 8.44043 21.0999 10.1993 21.1002 11.9987L19.5665 6.94432ZM21.1002 11.9987C21.0966 14.4114 20.1365 16.7243 18.4305 18.4303C16.7244 20.1363 14.4115 21.0964 11.9988 21.1L21.1002 11.9987Z" stroke="black" stroke-width="1.8"/>
<path id="Vector_2" d="M11.746 7.06716C12.0323 7.05155 12.3144 7.14202 12.5382 7.32127C12.6397 7.39996 12.7202 7.50258 12.7724 7.61996C12.8245 7.73734 12.8468 7.86582 12.8372 7.99391C12.8455 8.12186 12.8226 8.2499 12.7706 8.36707C12.7185 8.48423 12.6388 8.587 12.5382 8.66656C12.3123 8.84047 12.0304 8.92555 11.746 8.90572C11.4669 8.91926 11.1919 8.83464 10.9687 8.66656C10.8679 8.58386 10.7882 8.47838 10.7363 8.35883C10.6843 8.23927 10.6615 8.10907 10.6697 7.97897C10.6651 7.85365 10.6896 7.72897 10.7415 7.6148C10.7934 7.50064 10.8712 7.40014 10.9687 7.32127C11.1899 7.14785 11.4651 7.05789 11.746 7.06716ZM12.6877 15.2286C12.6646 15.465 12.7226 15.7022 12.8521 15.9012C13.0201 16.0373 13.2349 16.1018 13.45 16.0806V16.3347H11.8656H10.1914V16.0806C10.2981 16.0937 10.4062 16.0845 10.5092 16.0536C10.6121 16.0227 10.7075 15.9708 10.7893 15.9012C10.9315 15.7075 10.9955 15.4674 10.9687 15.2286V11.4618C10.9912 11.1808 10.9287 10.8996 10.7893 10.6546C10.7202 10.5641 10.6287 10.4931 10.5239 10.4486C10.4191 10.404 10.3045 10.3875 10.1914 10.4005V10.1464H10.9388C11.526 10.1561 12.1126 10.1009 12.6877 9.98196V15.2286Z" fill="black"/>
</g>
</g>
</svg>
