<svg width="77" height="81" viewBox="0 0 77 81" fill="none" xmlns="http://www.w3.org/2000/svg">
<path d="M76.7704 39.1299C76.7704 59.3999 60.4104 75.8199 40.2304 75.8199C20.0504 75.8199 3.69043 59.3899 3.69043 39.1299C3.69043 18.8699 20.0504 2.43994 40.2304 2.43994C60.4104 2.43994 76.7704 18.8699 76.7704 39.1299Z" fill="white"/>
<path d="M40.2304 75.8199C60.4109 75.8199 76.7704 59.3933 76.7704 39.1299C76.7704 18.8666 60.4109 2.43994 40.2304 2.43994C20.0499 2.43994 3.69043 18.8666 3.69043 39.1299C3.69043 59.3933 20.0499 75.8199 40.2304 75.8199Z" stroke="#0B0907" stroke-width="0.417" stroke-miterlimit="10"/>
<path d="M75.2402 38.4297C75.2402 58.6997 58.8802 75.1198 38.7002 75.1198C18.5202 75.1198 2.16016 58.6898 2.16016 38.4297C2.16016 18.1697 18.5202 1.73975 38.7002 1.73975C58.8802 1.73975 75.2402 18.1697 75.2402 38.4297Z" fill="#0B0907"/>
<path d="M73.5204 37.0198C73.5204 57.2898 57.1604 73.7098 36.9804 73.7098C16.8004 73.7098 0.44043 57.2798 0.44043 37.0198C0.44043 16.7598 16.8004 0.319824 36.9804 0.319824C57.1604 0.319824 73.5204 16.7498 73.5204 37.0198Z" fill="#D5221C"/>
<path d="M10.3303 25.25C10.4403 25.02 10.6703 24.9 10.7903 24.7C11.2203 24.01 11.8603 23.64 12.6203 23.45C13.4303 23.24 14.1003 23.51 14.5603 24.28C14.9503 24.93 15.1903 25.66 15.5703 26.31C15.8503 26.77 16.2303 27.18 16.6203 27.57C16.9803 27.93 17.3103 27.76 17.5403 27.37C17.6503 27.18 17.7603 26.97 17.8103 26.76C18.0403 25.84 18.6403 25.28 19.4803 24.9C20.2103 24.57 20.6203 24.63 20.9103 25.39C21.3703 26.64 21.9203 27.9 22.0903 29.2C22.4103 31.67 22.5103 34.16 22.6603 36.65C22.7103 37.46 22.5303 37.58 21.7303 37.55C19.8003 37.48 19.7703 37.48 19.5303 35.54C19.4303 34.73 19.4903 33.9 19.4603 33.08C19.4103 31.66 19.3403 30.24 19.2703 28.82C19.2603 28.67 19.2303 28.48 19.1403 28.38C18.9403 28.17 18.6903 28 18.4603 27.81C18.3103 28.06 18.0903 28.29 18.0403 28.56C17.9503 28.99 18.0203 29.45 17.9403 29.89C17.7703 30.8 17.0703 31.05 16.4803 30.34C15.8703 29.62 15.4303 28.75 14.9103 27.95C14.7903 27.76 14.6403 27.6 14.4203 27.32C14.3403 27.58 14.2603 27.7 14.2603 27.82C14.3003 30 14.2903 32.19 14.4203 34.36C14.4703 35.2 14.8403 36.03 15.1003 36.86C15.3403 37.61 15.1103 37.97 14.3403 37.85C12.4303 37.55 11.6003 36.9 11.4103 35.13C11.1903 33.12 11.0503 31.1 10.8303 29.08C10.7603 28.5 10.5303 27.93 10.3603 27.36C10.3403 27.29 10.3303 27.23 10.3303 27.16C10.3203 26.48 10.2603 25.51 10.3303 25.25Z" fill="#0B0907"/>
<path d="M67.1107 51.8399C66.6407 52.2099 66.1907 52.6099 65.6907 52.9099C65.1907 53.2099 64.6107 53.3899 64.0607 53.6099C63.6707 53.7699 63.2807 53.9099 62.8907 54.0699C62.7907 54.1099 62.7807 54.1899 62.5907 54.1999C61.1107 54.3199 59.5907 54.2299 58.3807 53.0899C57.9507 52.6799 57.4307 52.3599 57.0007 51.9399C56.7507 51.6899 56.4407 51.3299 56.4507 51.0199C56.4607 49.6899 56.3907 48.3299 56.6907 47.0499C57.5207 43.4299 60.6307 42.8199 63.3407 43.7399C64.7707 44.2299 65.8707 45.1399 66.2607 46.6999C66.4907 47.6099 66.2707 48.0399 65.3707 48.3199C64.1007 48.7199 62.8207 49.0899 61.5407 49.4499C60.6307 49.6999 60.3707 50.3899 60.9007 51.1899C62.0407 52.8999 64.1307 53.0299 65.4707 51.4799C65.7507 51.1599 66.0207 50.8099 66.3707 50.6299C67.1107 50.1999 67.7807 51.3099 67.1107 51.8399ZM61.1407 48.2499C61.8307 48.2399 62.6007 48.1399 62.8207 47.4399C62.9507 47.0199 62.7307 46.3799 62.4607 45.9799C62.2607 45.6999 61.6807 45.4899 61.3307 45.5599C61.0207 45.6199 60.7307 46.0699 60.5407 46.4099C60.4007 46.6599 60.4507 47.0199 60.3907 47.3299C60.2507 48.0899 60.3807 48.2599 61.1407 48.2499Z" fill="#0B0907"/>
<path d="M54.3106 20.1699C54.1606 21.1999 54.0406 22.2399 53.8506 23.2699C53.7806 23.6299 53.5806 23.9699 53.3806 24.2799C53.3006 24.3999 53.0506 24.4099 52.8806 24.4699C52.8806 24.3099 52.8606 24.1399 52.8906 23.9799C53.1806 22.8399 53.4906 21.6999 53.7906 20.5599C53.8206 20.4399 53.7906 20.2999 53.7806 20.1699H54.3106Z" fill="#0B0907"/>
<path d="M44.6307 37.3299C44.6307 37.9299 44.6407 38.5299 44.6207 39.1299C44.6107 39.2899 44.5107 39.4499 44.4507 39.6099C44.2707 39.5399 44.0007 39.5199 43.9407 39.3999C43.7207 38.9899 43.5107 38.5499 43.4207 38.0899C43.2807 37.3499 43.8207 36.4999 42.8807 35.8499C42.7307 35.7499 42.4507 35.6999 42.2707 35.7399C41.7507 35.8699 41.3207 36.1999 40.8707 36.4999C40.7007 36.6099 40.5707 36.7599 40.4107 36.8799C39.5607 37.5099 38.6707 38.1599 37.5407 37.7399C36.3007 37.2799 35.5107 36.2399 35.5107 34.9899C35.5207 32.3499 35.9907 29.7999 38.2007 27.9599C39.4207 26.9399 40.9507 26.8299 42.4807 26.5999C42.5807 26.5799 42.6907 26.5399 42.7707 26.4799C43.5107 25.9999 43.9107 25.8999 44.1907 26.4599C44.4207 26.9199 44.6407 27.3699 44.3107 27.8999C44.1807 28.1099 44.1507 28.4099 44.1607 28.6699C44.2407 30.6499 44.3307 32.6199 44.4507 34.5899C44.5007 35.4999 44.6007 36.4099 44.6907 37.3099C44.6607 37.3199 44.6507 37.3299 44.6307 37.3299ZM39.7807 31.7999C39.7707 31.8999 39.7807 31.9999 39.8107 32.0999C39.8907 32.3899 40.0007 32.8099 40.1907 33.1799C40.4007 33.5799 41.5707 33.8899 41.9507 33.7199C42.5307 33.4599 42.2307 32.9599 42.2307 32.5399C42.2407 32.3199 42.2307 32.0899 42.2207 31.8699C42.1607 31.0499 42.1707 30.2199 42.0207 29.4099C41.8707 28.5999 41.4207 28.4999 40.7807 29.0399C39.9907 29.7199 39.9107 30.6599 39.7807 31.7999Z" fill="#0B0907"/>
<path d="M47.8205 51.8199C47.8405 51.9299 47.8505 52.0499 47.8105 52.1499C47.4905 52.9499 47.0605 53.6799 46.2605 54.0899C45.5305 54.4599 44.9305 54.1899 44.8605 53.3599C44.7405 51.8299 44.7005 50.2999 44.6305 48.7699C44.6005 48.0399 44.6405 47.2999 44.5205 46.5899C44.2905 45.1399 45.3205 43.4899 46.7505 43.1399C47.1105 43.0499 47.3805 43.0599 47.5805 43.3999C47.7205 43.6599 48.1105 43.7899 48.3905 43.7099C49.1405 43.5099 49.8805 43.3099 50.5905 43.9099C50.6805 43.9799 50.9805 43.8199 51.1805 43.7399C51.7605 43.5099 52.3105 43.1799 52.9005 43.0499C53.8505 42.8599 54.8505 43.5399 55.0005 44.5799C55.1705 45.7099 55.1505 46.8799 55.1705 48.0299C55.1805 48.6499 55.0705 49.2699 55.0405 49.8999C55.0305 50.0899 55.0205 50.3699 55.1305 50.4699C55.6905 50.9499 55.3505 51.3399 55.0505 51.7199C54.5705 52.3299 54.0805 52.9399 53.5605 53.5199C53.2005 53.9199 52.7905 54.3199 52.1805 54.0899C51.5405 53.8499 51.3905 53.2799 51.5005 52.7099C51.6705 51.7799 51.8205 50.8099 52.2105 49.9599C52.9205 48.3799 52.8705 46.7499 52.8305 45.1099C52.8305 44.9599 52.6205 44.6799 52.5205 44.6799C52.3405 44.6899 52.0605 44.8399 52.0205 44.9799C51.9105 45.3999 51.9205 45.8599 51.8305 46.2899C51.7205 46.8499 51.6405 47.4299 51.4005 47.9399C51.1705 48.4299 50.8205 48.3799 50.6105 47.8599C50.4405 47.4499 50.3805 46.9999 50.3005 46.5699C50.1305 45.7099 49.6805 45.1899 49.0905 45.1799C48.4205 45.1699 47.7205 45.8499 47.5905 46.6499C47.5805 46.7399 47.5705 46.8299 47.5705 46.9199C47.5705 47.6099 47.5705 48.2999 47.5705 48.9899" fill="#0B0907"/>
<path d="M29.1203 37.8497C28.5303 37.7897 28.0403 37.7597 27.5603 37.6997C26.7503 37.5997 26.0203 37.3297 25.4203 36.7097C25.0203 36.2997 24.5003 35.9997 24.1003 35.5897C23.8403 35.3197 23.5303 34.9297 23.5403 34.5997C23.5903 32.3497 23.5503 30.0297 24.7903 28.0497C24.8703 27.9197 25.0003 27.8197 25.1403 27.7597C28.0003 26.5797 30.8203 26.6997 32.7203 29.0297C32.7603 29.0697 32.7903 29.1297 32.8103 29.1697C33.7803 31.0297 33.6303 31.6397 32.0703 32.0697C30.7403 32.4397 29.4203 32.8397 28.1003 33.2497C27.6603 33.3897 27.4603 33.8397 27.6603 34.2597C28.6803 36.4897 31.0703 36.8297 32.5403 35.1297C32.8003 34.8297 33.0603 34.4897 33.3903 34.2897C33.5903 34.1797 34.0103 34.2297 34.1903 34.3697C34.3303 34.4897 34.3803 34.9497 34.2703 35.1097C33.6003 36.0797 32.7003 36.7997 31.5703 37.1897C30.9903 37.3997 30.4003 37.5897 29.8103 37.7597C29.5603 37.8497 29.2903 37.8397 29.1203 37.8497ZM28.2703 31.9397C28.8403 31.8797 29.6003 31.8497 29.8403 31.1697C29.9903 30.7497 29.8303 30.0997 29.5803 29.6997C29.4003 29.4097 28.8203 29.1897 28.4603 29.2397C28.1403 29.2797 27.8103 29.7097 27.6303 30.0397C27.4703 30.3297 27.5003 30.7297 27.4603 31.0897C27.3603 31.7597 27.5203 31.9397 28.2703 31.9397Z" fill="#0B0907"/>
<path d="M53.3401 35.2797C54.3401 35.2797 55.3401 35.2797 56.3401 35.2797C56.4701 35.2797 56.6402 35.2397 56.7302 35.3097C57.0002 35.4797 57.2401 35.6797 57.5001 35.8797C57.2801 36.0997 57.0801 36.4597 56.8301 36.4997C55.4801 36.7497 54.1201 36.9997 52.7501 37.1097C51.4801 37.2097 50.1701 37.3997 48.9201 36.8297C48.8001 36.7697 48.5301 36.9997 48.3401 37.1197C47.9701 37.3497 47.5801 37.8297 47.2501 37.7897C46.6601 37.7197 46.6401 37.0697 46.5601 36.5597C46.0501 33.5397 46.2001 30.5097 46.5801 27.5097C46.7801 25.9297 47.3202 24.3097 49.0502 23.5697C49.2302 23.4897 49.5002 23.4597 49.6602 23.5397C49.7702 23.5997 49.8401 23.9197 49.7801 24.0697C49.1401 25.9997 49.6301 27.9997 49.4201 29.9697C49.2701 31.4297 49.3102 32.9097 49.3002 34.3697C49.3002 35.1497 49.4801 35.2897 50.2601 35.2997C51.2801 35.3097 52.3101 35.2997 53.3301 35.2997C53.3401 35.2897 53.3401 35.2897 53.3401 35.2797Z" fill="#0B0907"/>
<path d="M33.3002 48.3897C33.2402 49.7597 33.1102 51.1197 33.2202 52.4897C33.2202 52.5397 33.2302 52.5797 33.2402 52.6197C33.3602 53.0997 33.5202 54.0597 32.8502 54.1297C32.5402 54.1597 32.1502 53.8097 31.8702 53.5497C31.7202 53.4097 31.7102 53.0997 31.6902 52.8597C31.5402 50.5997 31.3802 48.3297 31.2902 46.0697C31.2602 45.3197 31.6002 44.5297 31.7302 43.8197C31.7902 43.4897 31.6002 43.1197 31.2902 42.9997C30.6102 42.7197 29.8702 42.6397 29.1402 42.5197C28.6902 42.4497 27.9402 41.6397 27.8902 41.1497C27.8402 40.6397 28.2102 40.1397 28.9002 40.0097C29.9102 39.8097 30.9002 39.5997 31.9402 40.1297C33.1402 40.7397 34.4302 40.8097 35.7802 40.4297C36.4902 40.2297 37.2702 40.2697 38.0202 40.2797C38.5102 40.2897 38.6502 40.6197 38.4102 41.0597C37.9302 41.9097 37.2902 42.6097 36.3802 43.0297C36.1002 43.1597 35.8102 43.3197 35.6002 43.5397C35.3702 43.7797 35.0102 43.8497 34.7202 43.7097C34.0802 43.3897 33.6702 43.6197 33.5902 44.2297" fill="#0B0907"/>
<path d="M39.5107 47.8901C39.5207 45.8501 40.7507 44.6601 42.4007 44.8701C42.9007 44.9301 43.1707 45.3801 42.9907 45.8501C42.8807 46.1401 42.7707 46.4701 42.7707 46.7801C42.7707 48.8901 42.8007 51.0001 42.8207 53.1101C42.8307 53.6901 42.4307 54.0001 41.9607 54.1801C41.4407 54.3801 40.9907 54.1401 40.7807 53.6901C40.4307 52.9501 40.0807 52.1801 39.9307 51.3901C39.6907 50.1601 39.6207 48.9101 39.5107 47.8901Z" fill="#0B0907"/>
<path d="M39.6506 41.1696C39.6606 40.2696 40.1906 39.6996 41.0306 39.7096C41.8906 39.7196 42.4506 40.1296 42.4306 40.7196C42.4006 41.5296 41.5206 42.4096 40.7306 42.4196C40.0706 42.4296 39.6406 41.9296 39.6506 41.1696Z" fill="#0B0907"/>
<path d="M62.6407 26.46C62.5007 27.72 59.8407 29.39 58.9307 28.89C60.2007 28.06 61.4207 27.26 62.6407 26.46Z" fill="#0B0907"/>
<path d="M66.5301 36.0498C66.2601 36.1798 66.1301 36.2898 65.9901 36.2998C64.9801 36.3898 63.9601 36.4698 62.9501 36.5098C62.7101 36.5198 62.4401 36.3698 62.2101 36.2498C62.1301 36.2098 62.0801 36.0198 62.0901 35.9098C62.0901 35.8498 62.2501 35.7598 62.3401 35.7598C63.6001 35.7698 64.8601 35.7998 66.1301 35.8298C66.2201 35.8398 66.3101 35.9298 66.5301 36.0498Z" fill="#0B0907"/>
<path d="M9.52081 24.5899C9.63081 24.3599 9.86081 24.2399 9.98081 24.0399C10.4108 23.3499 11.0508 22.9799 11.8108 22.7899C12.6208 22.5799 13.2908 22.8499 13.7508 23.6199C14.1408 24.2699 14.3808 24.9999 14.7608 25.6499C15.0408 26.1099 15.4208 26.5199 15.8108 26.9099C16.1708 27.2699 16.5008 27.0999 16.7308 26.7099C16.8408 26.5199 16.9508 26.3099 17.0008 26.0999C17.2308 25.1799 17.8308 24.6199 18.6708 24.2399C19.4008 23.9099 19.8108 23.9699 20.1008 24.7299C20.5608 25.9799 21.1108 27.2399 21.2808 28.5399C21.6008 31.0099 21.7008 33.4999 21.8508 35.9899C21.9008 36.7999 21.7208 36.9199 20.9208 36.8899C18.9908 36.8199 18.9608 36.8199 18.7208 34.8799C18.6208 34.0699 18.6808 33.2399 18.6508 32.4199C18.6008 30.9999 18.5308 29.5799 18.4608 28.1599C18.4508 28.0099 18.4208 27.8199 18.3308 27.7199C18.1308 27.5099 17.8808 27.3399 17.6508 27.1499C17.5008 27.3999 17.2808 27.6299 17.2308 27.8999C17.1408 28.3299 17.2108 28.7899 17.1308 29.2299C16.9608 30.1399 16.2608 30.3899 15.6708 29.6799C15.0608 28.9599 14.6208 28.0899 14.1008 27.2899C13.9808 27.0999 13.8308 26.9399 13.6108 26.6599C13.5308 26.9199 13.4508 27.0399 13.4508 27.1599C13.4908 29.3399 13.4808 31.5299 13.6108 33.6999C13.6608 34.5399 14.0308 35.3699 14.2908 36.1999C14.5308 36.9499 14.3008 37.3099 13.5308 37.1899C11.6208 36.8899 10.7908 36.2399 10.6008 34.4699C10.3808 32.4599 10.2408 30.4399 10.0208 28.4199C9.95081 27.8399 9.72081 27.2699 9.55081 26.6999C9.53081 26.6299 9.52081 26.5699 9.52081 26.4999C9.52081 25.8299 9.46081 24.8599 9.52081 24.5899Z" fill="white"/>
<path d="M66.31 51.1798C65.84 51.5498 65.39 51.9498 64.89 52.2498C64.39 52.5498 63.81 52.7298 63.26 52.9498C62.87 53.1098 62.48 53.2498 62.09 53.4098C61.99 53.4498 61.98 53.5298 61.79 53.5398C60.31 53.6598 58.79 53.5698 57.58 52.4298C57.15 52.0198 56.63 51.6998 56.2 51.2798C55.95 51.0298 55.64 50.6698 55.65 50.3598C55.66 49.0298 55.59 47.6698 55.89 46.3898C56.72 42.7698 59.83 42.1598 62.54 43.0798C63.97 43.5698 65.07 44.4798 65.46 46.0398C65.69 46.9498 65.47 47.3798 64.57 47.6598C63.3 48.0598 62.02 48.4298 60.74 48.7898C59.83 49.0398 59.57 49.7298 60.1 50.5298C61.24 52.2398 63.33 52.3698 64.67 50.8198C64.95 50.4998 65.22 50.1498 65.57 49.9698C66.3 49.5498 66.98 50.6498 66.31 51.1798ZM60.34 47.5898C61.03 47.5798 61.8 47.4798 62.02 46.7798C62.15 46.3598 61.93 45.7198 61.66 45.3198C61.46 45.0398 60.88 44.8298 60.53 44.8998C60.22 44.9598 59.93 45.4098 59.74 45.7498C59.6 45.9998 59.65 46.3598 59.59 46.6698C59.44 47.4398 59.58 47.5998 60.34 47.5898Z" fill="white"/>
<path d="M53.5 19.5098C53.35 20.5398 53.23 21.5798 53.04 22.6098C52.97 22.9698 52.77 23.3098 52.57 23.6198C52.49 23.7398 52.24 23.7498 52.07 23.8098C52.07 23.6498 52.05 23.4798 52.08 23.3198C52.37 22.1798 52.68 21.0398 52.98 19.8998C53.01 19.7798 52.98 19.6398 52.97 19.5098H53.5Z" fill="white"/>
<path d="M43.8204 36.6697C43.8204 37.2697 43.8304 37.8698 43.8104 38.4698C43.8004 38.6298 43.7004 38.7898 43.6404 38.9497C43.4604 38.8798 43.1904 38.8598 43.1204 38.7398C42.9004 38.3298 42.6904 37.8897 42.6004 37.4297C42.4604 36.6897 43.0004 35.8397 42.0604 35.1897C41.9104 35.0897 41.6304 35.0398 41.4504 35.0798C40.9304 35.2098 40.5004 35.5397 40.0504 35.8397C39.8804 35.9497 39.7504 36.0998 39.5904 36.2198C38.7404 36.8498 37.8504 37.4998 36.7204 37.0798C35.4804 36.6198 34.6904 35.5798 34.6904 34.3298C34.7004 31.6898 35.1704 29.1397 37.3804 27.2997C38.6004 26.2797 40.1304 26.1697 41.6604 25.9397C41.7604 25.9197 41.8704 25.8797 41.9504 25.8197C42.6904 25.3397 43.0904 25.2397 43.3704 25.7997C43.6004 26.2597 43.8204 26.7098 43.4904 27.2398C43.3604 27.4498 43.3304 27.7497 43.3404 28.0097C43.4204 29.9897 43.5104 31.9597 43.6304 33.9297C43.6804 34.8397 43.7804 35.7498 43.8704 36.6498C43.8604 36.6698 43.8404 36.6697 43.8204 36.6697ZM38.9704 31.1397C38.9604 31.2397 38.9704 31.3397 39.0004 31.4397C39.0804 31.7297 39.1904 32.1497 39.3804 32.5197C39.5904 32.9197 40.7604 33.2298 41.1404 33.0598C41.7204 32.7998 41.4204 32.2998 41.4204 31.8798C41.4304 31.6598 41.4204 31.4297 41.4104 31.2097C41.3504 30.3897 41.3604 29.5597 41.2104 28.7497C41.0604 27.9397 40.6104 27.8398 39.9704 28.3798C39.1904 29.0598 39.1104 30.0097 38.9704 31.1397Z" fill="white"/>
<path d="M47.0206 51.17C47.0406 51.28 47.0507 51.4 47.0107 51.5C46.6907 52.3 46.2606 53.03 45.4606 53.44C44.7306 53.81 44.1306 53.54 44.0606 52.71C43.9306 51.18 43.9007 49.65 43.8307 48.12C43.8007 47.39 43.8407 46.65 43.7207 45.94C43.4907 44.49 44.5206 42.84 45.9506 42.49C46.3106 42.4 46.5806 42.41 46.7806 42.75C46.9206 43.01 47.3106 43.14 47.5906 43.06C48.3406 42.86 49.0807 42.66 49.7907 43.26C49.8807 43.33 50.1806 43.17 50.3806 43.09C50.9606 42.86 51.5006 42.53 52.1006 42.4C53.0506 42.21 54.0506 42.89 54.2006 43.93C54.3706 45.06 54.3507 46.23 54.3707 47.38C54.3807 48 54.2706 48.62 54.2406 49.25C54.2306 49.44 54.2207 49.72 54.3307 49.82C54.8907 50.3 54.5507 50.69 54.2507 51.07C53.7707 51.68 53.2807 52.29 52.7607 52.87C52.4007 53.27 51.9906 53.67 51.3806 53.44C50.7406 53.2 50.5906 52.63 50.7006 52.06C50.8706 51.13 51.0207 50.16 51.4107 49.31C52.1207 47.73 52.0706 46.1 52.0306 44.46C52.0306 44.31 51.8207 44.03 51.7207 44.03C51.5407 44.04 51.2607 44.19 51.2207 44.33C51.1107 44.75 51.1206 45.21 51.0306 45.64C50.9206 46.2 50.8406 46.78 50.6006 47.29C50.3706 47.78 50.0206 47.73 49.8106 47.21C49.6406 46.8 49.5806 46.35 49.5006 45.92C49.3306 45.06 48.8807 44.54 48.2907 44.53C47.6207 44.52 46.9207 45.2 46.7907 46C46.7807 46.09 46.7706 46.18 46.7706 46.27C46.7706 46.96 46.7706 47.65 46.7706 48.34" fill="white"/>
<path d="M28.3205 37.1998C27.7305 37.1398 27.2405 37.1097 26.7605 37.0497C25.9505 36.9497 25.2205 36.6798 24.6205 36.0598C24.2205 35.6498 23.7005 35.3497 23.3005 34.9397C23.0405 34.6697 22.7305 34.2798 22.7405 33.9498C22.7905 31.6998 22.7505 29.3798 23.9905 27.3998C24.0705 27.2698 24.2005 27.1698 24.3405 27.1098C27.2005 25.9298 30.0205 26.0498 31.9205 28.3798C31.9605 28.4198 31.9905 28.4798 32.0105 28.5198C32.9805 30.3798 32.8305 30.9897 31.2705 31.4197C29.9405 31.7897 28.6205 32.1897 27.3005 32.5997C26.8605 32.7397 26.6605 33.1898 26.8605 33.6098C27.8805 35.8398 30.2705 36.1797 31.7405 34.4797C32.0005 34.1797 32.2605 33.8397 32.5905 33.6397C32.7905 33.5297 33.2105 33.5798 33.3905 33.7198C33.5305 33.8398 33.5805 34.2997 33.4705 34.4597C32.8005 35.4297 31.9005 36.1398 30.7705 36.5398C30.1905 36.7498 29.6005 36.9398 29.0105 37.1098C28.7605 37.1898 28.4805 37.1798 28.3205 37.1998ZM27.4605 31.2898C28.0305 31.2298 28.7905 31.1997 29.0305 30.5198C29.1805 30.0998 29.0205 29.4497 28.7705 29.0497C28.5905 28.7597 28.0105 28.5398 27.6505 28.5898C27.3305 28.6298 27.0005 29.0597 26.8205 29.3897C26.6605 29.6797 26.6905 30.0797 26.6505 30.4397C26.5605 31.0997 26.7205 31.2898 27.4605 31.2898Z" fill="white"/>
<path d="M52.5403 34.6201C53.5403 34.6201 54.5403 34.6201 55.5403 34.6201C55.6703 34.6201 55.8403 34.5801 55.9303 34.6501C56.2003 34.8201 56.4403 35.0201 56.7003 35.2201C56.4803 35.4401 56.2803 35.8001 56.0303 35.8401C54.6803 36.0901 53.3203 36.3401 51.9503 36.4501C50.6803 36.5501 49.3703 36.7401 48.1203 36.1701C48.0003 36.1101 47.7303 36.3401 47.5403 36.4601C47.1703 36.6901 46.7803 37.1701 46.4503 37.1301C45.8603 37.0601 45.8403 36.4101 45.7603 35.9001C45.2503 32.8801 45.4003 29.8501 45.7803 26.8501C45.9803 25.2701 46.5203 23.6501 48.2503 22.9101C48.4303 22.8301 48.7003 22.8001 48.8603 22.8801C48.9703 22.9401 49.0403 23.2601 48.9803 23.4101C48.3203 25.3401 48.8003 27.3501 48.5903 29.3201C48.4403 30.7801 48.4803 32.2601 48.4703 33.7201C48.4703 34.5001 48.6503 34.6401 49.4303 34.6501C50.4503 34.6601 51.4803 34.6501 52.5003 34.6501C52.5403 34.6401 52.5403 34.6301 52.5403 34.6201Z" fill="white"/>
<path d="M32.4907 47.7398C32.4307 49.1098 32.3007 50.4698 32.4107 51.8398C32.4107 51.8898 32.4207 51.9298 32.4307 51.9698C32.5507 52.4498 32.7107 53.4098 32.0407 53.4798C31.7307 53.5098 31.3407 53.1598 31.0607 52.8998C30.9107 52.7598 30.9007 52.4498 30.8807 52.2098C30.7307 49.9498 30.5707 47.6798 30.4807 45.4198C30.4507 44.6698 30.7907 43.8798 30.9207 43.1698C30.9807 42.8398 30.7907 42.4698 30.4807 42.3498C29.8007 42.0698 29.0607 41.9898 28.3307 41.8698C27.8807 41.7998 27.1307 40.9898 27.0807 40.4998C27.0307 39.9898 27.4007 39.4898 28.0907 39.3598C29.1007 39.1598 30.0907 38.9498 31.1307 39.4798C32.3307 40.0898 33.6207 40.1598 34.9707 39.7798C35.6807 39.5798 36.4607 39.6198 37.2107 39.6298C37.7007 39.6398 37.8407 39.9698 37.6007 40.4098C37.1207 41.2598 36.4807 41.9598 35.5707 42.3798C35.2907 42.5098 35.0007 42.6698 34.7907 42.8898C34.5607 43.1298 34.2007 43.1998 33.9107 43.0598C33.2707 42.7398 32.8607 42.9698 32.7807 43.5798" fill="white"/>
<path d="M38.7002 47.2299C38.7102 45.1899 39.9402 43.9999 41.5902 44.2099C42.0902 44.2699 42.3602 44.7199 42.1802 45.1899C42.0702 45.4799 41.9602 45.8099 41.9602 46.1199C41.9602 48.2299 41.9902 50.3399 42.0102 52.4499C42.0202 53.0299 41.6202 53.3399 41.1502 53.5199C40.6302 53.7199 40.1802 53.4799 39.9702 53.0299C39.6202 52.2899 39.2702 51.5199 39.1202 50.7299C38.8902 49.5099 38.8202 48.2599 38.7002 47.2299Z" fill="white"/>
<path d="M38.8408 40.5197C38.8508 39.6197 39.3808 39.0497 40.2208 39.0597C41.0808 39.0697 41.6408 39.4797 41.6208 40.0697C41.5908 40.8797 40.7108 41.7597 39.9208 41.7697C39.2708 41.7797 38.8408 41.2797 38.8408 40.5197Z" fill="white"/>
<path d="M61.8409 25.8101C61.7009 27.0701 59.0409 28.7401 58.1309 28.2401C59.4009 27.4001 60.6209 26.6101 61.8409 25.8101Z" fill="white"/>
<path d="M65.7206 35.3896C65.4506 35.5196 65.3206 35.6296 65.1806 35.6396C64.1706 35.7296 63.1506 35.8096 62.1406 35.8496C61.9006 35.8596 61.6306 35.7096 61.4006 35.5896C61.3206 35.5496 61.2706 35.3596 61.2806 35.2496C61.2806 35.1896 61.4406 35.0996 61.5306 35.0996C62.7906 35.1096 64.0506 35.1396 65.3206 35.1696C65.4106 35.1796 65.5006 35.2696 65.7206 35.3896Z" fill="white"/>
<path d="M23.9004 70.2495L23.3504 71.0895C23.6504 71.2095 24.2904 71.7995 24.3304 72.3795C24.6504 72.1995 26.1804 71.4895 26.2704 71.4795C26.4904 71.4395 26.6004 71.6695 26.6404 71.8995C26.6504 71.9295 24.9504 72.8895 24.3804 73.2695C23.9504 74.6595 23.5504 75.3595 22.7104 76.7395C21.8704 78.1295 20.0304 79.9995 19.2704 80.1795C18.6104 80.3395 18.2304 79.8595 18.1604 79.4495C17.6904 76.5395 21.0704 74.5495 23.4304 72.9095C23.4504 72.7095 23.3404 72.4395 23.3104 72.2895C23.3004 72.2495 23.0204 71.9295 22.6904 71.7795C22.4504 71.6595 22.3304 71.5895 22.3004 71.4295C22.2904 71.2895 22.5404 71.0295 22.9704 70.3795C23.3004 69.8895 23.6304 69.2395 23.5704 68.8195C23.5304 68.6395 23.3504 68.3995 23.1704 68.4395C22.8804 68.4995 22.6204 68.6595 22.2004 69.0295C21.5504 69.6195 20.9904 70.1895 20.7304 70.2195C20.4304 70.2595 20.2704 70.1595 20.2204 69.8795C20.1904 69.5195 21.3904 68.5895 21.6904 68.3295C22.1904 67.9095 22.9504 67.5595 23.1404 67.5195C23.7504 67.3995 24.2804 67.9495 24.3604 68.5995C24.4104 69.1595 24.1304 69.9095 23.9004 70.2495ZM23.3204 73.8995C22.5704 74.3795 18.6904 76.9295 19.0404 79.0995C19.0604 79.2795 19.1304 79.2495 19.2904 79.2195C19.5604 79.1695 21.1004 77.6795 21.8004 76.6995C22.5104 75.6995 23.0304 74.5895 23.3204 73.8995Z" fill="black" stroke="black" stroke-width="0.35" stroke-miterlimit="10" stroke-linecap="round" stroke-linejoin="round"/>
<path d="M23.9004 70.2495L23.3504 71.0895C23.6504 71.2095 24.2904 71.7995 24.3304 72.3795C24.6504 72.1995 26.1804 71.4895 26.2704 71.4795C26.4904 71.4395 26.6004 71.6695 26.6404 71.8995C26.6504 71.9295 24.9504 72.8895 24.3804 73.2695C23.9504 74.6595 23.5504 75.3595 22.7104 76.7395C21.8704 78.1295 20.0304 79.9995 19.2704 80.1795C18.6104 80.3395 18.2304 79.8595 18.1604 79.4495C17.6904 76.5395 21.0704 74.5495 23.4304 72.9095C23.4504 72.7095 23.3404 72.4395 23.3104 72.2895C23.3004 72.2495 23.0204 71.9295 22.6904 71.7795C22.4504 71.6595 22.3304 71.5895 22.3004 71.4295C22.2904 71.2895 22.5404 71.0295 22.9704 70.3795C23.3004 69.8895 23.6304 69.2395 23.5704 68.8195C23.5304 68.6395 23.3504 68.3995 23.1704 68.4395C22.8804 68.4995 22.6204 68.6595 22.2004 69.0295C21.5504 69.6195 20.9904 70.1895 20.7304 70.2195C20.4304 70.2595 20.2704 70.1595 20.2204 69.8795C20.1904 69.5195 21.3904 68.5895 21.6904 68.3295C22.1904 67.9095 22.9504 67.5595 23.1404 67.5195C23.7504 67.3995 24.2804 67.9495 24.3604 68.5995C24.4104 69.1595 24.1304 69.9095 23.9004 70.2495ZM23.3204 73.8995C22.5704 74.3795 18.6904 76.9295 19.0404 79.0995C19.0604 79.2795 19.1304 79.2495 19.2904 79.2195C19.5604 79.1695 21.1004 77.6795 21.8004 76.6995C22.5104 75.6995 23.0304 74.5895 23.3204 73.8995Z" fill="black" stroke="black" stroke-width="0.35" stroke-miterlimit="10" stroke-linecap="round" stroke-linejoin="round"/>
<path d="M31.9408 71.5297C31.4608 72.1097 30.9908 72.4497 30.5308 72.5397C30.1508 72.6197 29.8608 72.5697 29.6608 72.3897C29.5208 72.2497 29.4308 72.0697 29.3908 71.8497C29.3308 71.5397 29.3608 71.0897 29.4208 70.6997L28.1808 72.2297C27.6408 72.8397 27.1608 73.1797 26.7608 73.2597C26.3608 73.3397 25.9908 73.0597 25.9308 72.7797C25.8908 72.5597 26.0508 72.0797 26.4108 71.3497C26.7708 70.6197 27.2008 69.9397 27.6708 69.2897C28.1208 68.6997 28.4308 68.2997 28.6108 68.0797C29.2408 67.3297 29.7608 66.8997 30.1408 66.8297C30.4208 66.7697 30.6908 66.8097 30.9308 66.9497C31.1308 66.7897 31.3208 66.5097 31.4208 66.4897C31.6608 66.4397 31.8008 66.5497 31.8608 66.8297C31.8808 66.9297 31.8408 67.0997 31.7408 67.2797L31.3508 67.9497C30.9708 68.5897 30.7108 69.1297 30.5308 69.5497C30.2508 70.2197 30.1508 70.7597 30.2408 71.1897C30.2908 71.4297 30.3808 71.5897 30.5608 71.5597C30.9608 71.4797 31.3908 71.1197 31.8608 70.4797L32.6308 69.4097C32.6708 69.3597 32.7108 69.3297 32.7508 69.3197C32.9108 69.2897 33.0208 69.3697 33.0608 69.5797C33.0908 69.7597 33.0608 69.8897 32.9208 70.0997C32.3108 70.9897 31.9908 71.4697 31.9408 71.5297ZM29.9008 68.2597C29.8808 68.1697 29.8408 68.1297 29.7708 68.1497C29.4908 68.2097 28.9608 68.7997 28.2108 69.9297C27.4508 71.0597 27.1308 71.6797 27.2608 71.7897C27.3908 71.8997 27.8408 71.4597 28.6108 70.4997C29.3808 69.5197 29.8108 68.8797 29.8908 68.6097C29.9208 68.4897 29.9308 68.3797 29.9008 68.2597Z" fill="black" stroke="black" stroke-width="0.35" stroke-miterlimit="10" stroke-linecap="round" stroke-linejoin="round"/>
<path d="M31.9408 71.5297C31.4608 72.1097 30.9908 72.4497 30.5308 72.5397C30.1508 72.6197 29.8608 72.5697 29.6608 72.3897C29.5208 72.2497 29.4308 72.0697 29.3908 71.8497C29.3308 71.5397 29.3608 71.0897 29.4208 70.6997L28.1808 72.2297C27.6408 72.8397 27.1608 73.1797 26.7608 73.2597C26.3608 73.3397 25.9908 73.0597 25.9308 72.7797C25.8908 72.5597 26.0508 72.0797 26.4108 71.3497C26.7708 70.6197 27.2008 69.9397 27.6708 69.2897C28.1208 68.6997 28.4308 68.2997 28.6108 68.0797C29.2408 67.3297 29.7608 66.8997 30.1408 66.8297C30.4208 66.7697 30.6908 66.8097 30.9308 66.9497C31.1308 66.7897 31.3208 66.5097 31.4208 66.4897C31.6608 66.4397 31.8008 66.5497 31.8608 66.8297C31.8808 66.9297 31.8408 67.0997 31.7408 67.2797L31.3508 67.9497C30.9708 68.5897 30.7108 69.1297 30.5308 69.5497C30.2508 70.2197 30.1508 70.7597 30.2408 71.1897C30.2908 71.4297 30.3808 71.5897 30.5608 71.5597C30.9608 71.4797 31.3908 71.1197 31.8608 70.4797L32.6308 69.4097C32.6708 69.3597 32.7108 69.3297 32.7508 69.3197C32.9108 69.2897 33.0208 69.3697 33.0608 69.5797C33.0908 69.7597 33.0608 69.8897 32.9208 70.0997C32.3108 70.9897 31.9908 71.4697 31.9408 71.5297ZM29.9008 68.2597C29.8808 68.1697 29.8408 68.1297 29.7708 68.1497C29.4908 68.2097 28.9608 68.7997 28.2108 69.9297C27.4508 71.0597 27.1308 71.6797 27.2608 71.7897C27.3908 71.8997 27.8408 71.4597 28.6108 70.4997C29.3808 69.5197 29.8108 68.8797 29.8908 68.6097C29.9208 68.4897 29.9308 68.3797 29.9008 68.2597Z" fill="black" stroke="black" stroke-width="0.35" stroke-miterlimit="10" stroke-linecap="round" stroke-linejoin="round"/>
<path d="M36.7402 69.5396C36.1302 70.1996 35.6202 70.6996 35.2102 71.0396C34.5602 71.5496 33.9602 71.8696 33.4302 71.9696C32.8402 72.0896 32.2502 71.7596 32.1302 71.1196C32.0702 70.8096 32.1902 70.2696 32.5002 69.5096C32.8402 68.6896 33.2502 68.0095 33.7302 67.4595C34.0902 67.0395 34.5102 66.6596 34.9602 66.3296C35.4302 65.9796 35.7902 65.7796 36.0502 65.7296C36.5702 65.6296 36.6802 65.7295 36.7402 66.0195C36.7702 66.1495 36.7302 66.2795 36.6102 66.3795C36.4102 66.5895 35.7102 66.7996 35.1202 67.2896C34.7702 67.5896 34.4102 67.9696 34.0902 68.4296C33.8102 68.8096 33.5802 69.2495 33.3702 69.7395C33.1602 70.2295 33.0702 70.5595 33.1202 70.7795C33.1502 70.9395 33.2902 71.0195 33.5202 70.9895C33.9902 70.8995 34.5702 70.5495 35.2302 69.9495C35.4502 69.7495 35.7802 69.4096 36.2602 68.9396C36.5002 68.6896 36.8302 68.3395 36.9702 68.3195C37.1602 68.2795 37.2802 68.3396 37.3102 68.4696C37.3602 68.7696 37.1502 69.0996 36.7402 69.5396Z" fill="black" stroke="black" stroke-width="0.35" stroke-miterlimit="10" stroke-linecap="round" stroke-linejoin="round"/>
<path d="M36.7402 69.5396C36.1302 70.1996 35.6202 70.6996 35.2102 71.0396C34.5602 71.5496 33.9602 71.8696 33.4302 71.9696C32.8402 72.0896 32.2502 71.7596 32.1302 71.1196C32.0702 70.8096 32.1902 70.2696 32.5002 69.5096C32.8402 68.6896 33.2502 68.0095 33.7302 67.4595C34.0902 67.0395 34.5102 66.6596 34.9602 66.3296C35.4302 65.9796 35.7902 65.7796 36.0502 65.7296C36.5702 65.6296 36.6802 65.7295 36.7402 66.0195C36.7702 66.1495 36.7302 66.2795 36.6102 66.3795C36.4102 66.5895 35.7102 66.7996 35.1202 67.2896C34.7702 67.5896 34.4102 67.9696 34.0902 68.4296C33.8102 68.8096 33.5802 69.2495 33.3702 69.7395C33.1602 70.2295 33.0702 70.5595 33.1202 70.7795C33.1502 70.9395 33.2902 71.0195 33.5202 70.9895C33.9902 70.8995 34.5702 70.5495 35.2302 69.9495C35.4502 69.7495 35.7802 69.4096 36.2602 68.9396C36.5002 68.6896 36.8302 68.3395 36.9702 68.3195C37.1602 68.2795 37.2802 68.3396 37.3102 68.4696C37.3602 68.7696 37.1502 69.0996 36.7402 69.5396Z" fill="black" stroke="black" stroke-width="0.35" stroke-miterlimit="10" stroke-linecap="round" stroke-linejoin="round"/>
<path d="M37.1609 69.1796C37.1609 69.3196 36.8609 69.9096 36.9009 70.1396C36.9509 70.3796 36.9609 70.4496 37.1409 70.4196C37.4909 70.3496 37.9209 70.0296 38.9109 68.5096C39.2509 67.9096 39.5409 67.1896 40.2009 66.1196C40.6809 65.3696 41.3309 64.8396 41.4909 64.8096C41.6509 64.7796 41.8609 64.8896 41.8909 65.0496C41.9709 65.4796 41.7809 66.1096 41.6609 66.6296L41.3909 67.7996C41.2809 68.2696 41.0509 69.2596 41.0609 69.3096C41.1009 69.4996 41.1709 69.5796 41.2909 69.5596C41.5109 69.3796 41.8109 69.1496 42.0509 68.8296L43.0909 67.5696C43.8109 66.6896 44.3009 65.2496 45.1409 65.0796C45.3009 65.0496 45.3909 65.1096 45.4209 65.2696C45.5009 65.6996 45.2709 66.2796 45.1209 66.7796L44.7609 67.9696C44.6109 68.4296 44.4909 68.8796 44.5009 68.9196C44.5409 69.1096 44.6109 69.1896 44.7209 69.1696C44.8209 69.1496 45.2409 68.7796 45.7709 68.3396C46.2909 67.8796 46.5909 67.6596 46.6309 67.6496C46.7709 67.6096 46.8609 67.6596 46.9009 67.8596C46.9409 68.0796 46.6009 68.5296 45.8609 69.1796C45.1109 69.8296 44.8709 70.1296 44.4709 70.2096C44.0909 70.2896 43.7709 69.9496 43.6809 69.6496C43.5309 69.0996 43.8209 68.2696 44.1609 67.3496C43.6809 67.9496 43.3009 68.5796 42.4709 69.4896C41.8009 70.2196 41.4209 70.5296 41.0209 70.5996C40.6409 70.6796 40.3109 70.3396 40.2309 70.0396C40.1709 69.7896 40.3609 68.6696 40.4409 68.2396C40.5109 67.8996 40.7309 67.0796 40.8709 66.5496L39.5909 68.8996C38.6909 70.5496 37.9309 71.0396 37.0809 71.2296C36.5209 71.3496 36.1609 70.9696 36.1009 70.6396C36.0209 70.2296 36.2409 68.9396 36.8009 68.8296C37.0709 68.7496 37.1709 69.0396 37.1609 69.1796Z" fill="black" stroke="black" stroke-width="0.35" stroke-miterlimit="10" stroke-linecap="round" stroke-linejoin="round"/>
<path d="M37.1609 69.1796C37.1609 69.3196 36.8609 69.9096 36.9009 70.1396C36.9509 70.3796 36.9609 70.4496 37.1409 70.4196C37.4909 70.3496 37.9209 70.0296 38.9109 68.5096C39.2509 67.9096 39.5409 67.1896 40.2009 66.1196C40.6809 65.3696 41.3309 64.8396 41.4909 64.8096C41.6509 64.7796 41.8609 64.8896 41.8909 65.0496C41.9709 65.4796 41.7809 66.1096 41.6609 66.6296L41.3909 67.7996C41.2809 68.2696 41.0509 69.2596 41.0609 69.3096C41.1009 69.4996 41.1709 69.5796 41.2909 69.5596C41.5109 69.3796 41.8109 69.1496 42.0509 68.8296L43.0909 67.5696C43.8109 66.6896 44.3009 65.2496 45.1409 65.0796C45.3009 65.0496 45.3909 65.1096 45.4209 65.2696C45.5009 65.6996 45.2709 66.2796 45.1209 66.7796L44.7609 67.9696C44.6109 68.4296 44.4909 68.8796 44.5009 68.9196C44.5409 69.1096 44.6109 69.1896 44.7209 69.1696C44.8209 69.1496 45.2409 68.7796 45.7709 68.3396C46.2909 67.8796 46.5909 67.6596 46.6309 67.6496C46.7709 67.6096 46.8609 67.6596 46.9009 67.8596C46.9409 68.0796 46.6009 68.5296 45.8609 69.1796C45.1109 69.8296 44.8709 70.1296 44.4709 70.2096C44.0909 70.2896 43.7709 69.9496 43.6809 69.6496C43.5309 69.0996 43.8209 68.2696 44.1609 67.3496C43.6809 67.9496 43.3009 68.5796 42.4709 69.4896C41.8009 70.2196 41.4209 70.5296 41.0209 70.5996C40.6409 70.6796 40.3109 70.3396 40.2309 70.0396C40.1709 69.7896 40.3609 68.6696 40.4409 68.2396C40.5109 67.8996 40.7309 67.0796 40.8709 66.5496L39.5909 68.8996C38.6909 70.5496 37.9309 71.0396 37.0809 71.2296C36.5209 71.3496 36.1609 70.9696 36.1009 70.6396C36.0209 70.2296 36.2409 68.9396 36.8009 68.8296C37.0709 68.7496 37.1709 69.0396 37.1609 69.1796Z" fill="black" stroke="black" stroke-width="0.35" stroke-miterlimit="10" stroke-linecap="round" stroke-linejoin="round"/>
<path d="M52.4301 67.4797C51.9501 68.0597 51.4801 68.3996 51.0201 68.4896C50.6401 68.5696 50.3501 68.5096 50.1501 68.3396C50.0101 68.1996 49.9201 68.0197 49.8801 67.7997C49.8201 67.4897 49.8501 67.0396 49.9101 66.6396L48.6701 68.1696C48.1301 68.7796 47.6501 69.1196 47.2501 69.1996C46.8501 69.2796 46.4801 68.9997 46.4201 68.7197C46.3801 68.4997 46.5401 68.0197 46.9001 67.2897C47.2601 66.5597 47.6901 65.8797 48.1601 65.2297C48.6101 64.6397 48.9201 64.2396 49.1001 64.0196C49.7301 63.2696 50.2501 62.8396 50.6301 62.7696C50.9101 62.7096 51.1801 62.7496 51.4201 62.8896C51.6201 62.7296 51.8101 62.4496 51.9101 62.4296C52.1501 62.3796 52.2901 62.4896 52.3501 62.7696C52.3701 62.8696 52.3301 63.0397 52.2301 63.2197L51.8401 63.8896C51.4601 64.5296 51.2001 65.0696 51.0201 65.4896C50.7401 66.1596 50.6401 66.6996 50.7301 67.1296C50.7801 67.3696 50.8701 67.5296 51.0501 67.4996C51.4501 67.4196 51.8801 67.0596 52.3501 66.4196L53.1201 65.3496C53.1601 65.2996 53.2001 65.2697 53.2401 65.2597C53.4001 65.2297 53.5101 65.3096 53.5501 65.5196C53.5801 65.6996 53.5501 65.8297 53.4101 66.0397C52.8001 66.9497 52.4801 67.4297 52.4301 67.4797ZM50.3901 64.2197C50.3701 64.1297 50.3301 64.0897 50.2601 64.1097C49.9801 64.1697 49.4501 64.7596 48.7001 65.8896C47.9401 67.0196 47.6201 67.6296 47.7501 67.7496C47.8801 67.8596 48.3301 67.4196 49.1001 66.4596C49.8701 65.4796 50.3001 64.8396 50.3801 64.5696C50.4101 64.4496 50.4201 64.3397 50.3901 64.2197Z" fill="black" stroke="black" stroke-width="0.35" stroke-miterlimit="10" stroke-linecap="round" stroke-linejoin="round"/>
<path d="M52.4301 67.4797C51.9501 68.0597 51.4801 68.3996 51.0201 68.4896C50.6401 68.5696 50.3501 68.5096 50.1501 68.3396C50.0101 68.1996 49.9201 68.0197 49.8801 67.7997C49.8201 67.4897 49.8501 67.0396 49.9101 66.6396L48.6701 68.1696C48.1301 68.7796 47.6501 69.1196 47.2501 69.1996C46.8501 69.2796 46.4801 68.9997 46.4201 68.7197C46.3801 68.4997 46.5401 68.0197 46.9001 67.2897C47.2601 66.5597 47.6901 65.8797 48.1601 65.2297C48.6101 64.6397 48.9201 64.2396 49.1001 64.0196C49.7301 63.2696 50.2501 62.8396 50.6301 62.7696C50.9101 62.7096 51.1801 62.7496 51.4201 62.8896C51.6201 62.7296 51.8101 62.4496 51.9101 62.4296C52.1501 62.3796 52.2901 62.4896 52.3501 62.7696C52.3701 62.8696 52.3301 63.0397 52.2301 63.2197L51.8401 63.8896C51.4601 64.5296 51.2001 65.0696 51.0201 65.4896C50.7401 66.1596 50.6401 66.6996 50.7301 67.1296C50.7801 67.3696 50.8701 67.5296 51.0501 67.4996C51.4501 67.4196 51.8801 67.0596 52.3501 66.4196L53.1201 65.3496C53.1601 65.2996 53.2001 65.2697 53.2401 65.2597C53.4001 65.2297 53.5101 65.3096 53.5501 65.5196C53.5801 65.6996 53.5501 65.8297 53.4101 66.0397C52.8001 66.9497 52.4801 67.4297 52.4301 67.4797ZM50.3901 64.2197C50.3701 64.1297 50.3301 64.0897 50.2601 64.1097C49.9801 64.1697 49.4501 64.7596 48.7001 65.8896C47.9401 67.0196 47.6201 67.6296 47.7501 67.7496C47.8801 67.8596 48.3301 67.4196 49.1001 66.4596C49.8701 65.4796 50.3001 64.8396 50.3801 64.5696C50.4101 64.4496 50.4201 64.3397 50.3901 64.2197Z" fill="black" stroke="black" stroke-width="0.35" stroke-miterlimit="10" stroke-linecap="round" stroke-linejoin="round"/>
<path d="M58.2206 63.3197L56.3106 65.0498C56.6606 65.4898 57.0906 65.8898 57.5806 66.2598C57.9606 66.5398 58.1506 66.7297 58.1806 66.8597C58.2206 67.0797 58.1606 67.1997 57.9806 67.2397C57.6406 67.3097 57.2706 67.2098 56.8706 66.9698C56.4106 66.6798 56.0106 66.2498 55.6406 65.7298C54.2606 67.1798 53.5406 67.9198 53.2606 67.9798C52.8606 68.0598 52.7706 67.8497 52.6806 67.3897C52.6106 67.0497 52.8106 66.2798 53.2806 65.0498C53.8906 63.3998 54.6906 61.8498 55.0706 61.2898C55.4606 60.7198 55.7206 60.3998 55.9306 60.3598C56.1206 60.3198 56.2106 60.4597 56.2606 60.7397C56.2806 60.8097 56.2506 61.1398 55.8406 61.7998C55.2806 62.7098 54.6606 63.7298 54.0306 65.4398L53.7206 66.3597C54.1006 66.0897 54.5706 65.6698 55.1206 65.1498C55.5706 64.7098 55.9206 64.3798 56.1506 64.1598L58.3206 62.1098C59.0306 61.4297 59.4306 61.0797 59.5406 61.0597C59.7606 61.0197 59.8806 61.0697 59.9106 61.1997C59.9906 61.6397 59.6106 62.0697 58.2206 63.3197Z" fill="black" stroke="black" stroke-width="0.35" stroke-miterlimit="10" stroke-linecap="round" stroke-linejoin="round"/>
<path d="M58.2206 63.3197L56.3106 65.0498C56.6606 65.4898 57.0906 65.8898 57.5806 66.2598C57.9606 66.5398 58.1506 66.7297 58.1806 66.8597C58.2206 67.0797 58.1606 67.1997 57.9806 67.2397C57.6406 67.3097 57.2706 67.2098 56.8706 66.9698C56.4106 66.6798 56.0106 66.2498 55.6406 65.7298C54.2606 67.1798 53.5406 67.9198 53.2606 67.9798C52.8606 68.0598 52.7706 67.8497 52.6806 67.3897C52.6106 67.0497 52.8106 66.2798 53.2806 65.0498C53.8906 63.3998 54.6906 61.8498 55.0706 61.2898C55.4606 60.7198 55.7206 60.3998 55.9306 60.3598C56.1206 60.3198 56.2106 60.4597 56.2606 60.7397C56.2806 60.8097 56.2506 61.1398 55.8406 61.7998C55.2806 62.7098 54.6606 63.7298 54.0306 65.4398L53.7206 66.3597C54.1006 66.0897 54.5706 65.6698 55.1206 65.1498C55.5706 64.7098 55.9206 64.3798 56.1506 64.1598L58.3206 62.1098C59.0306 61.4297 59.4306 61.0797 59.5406 61.0597C59.7606 61.0197 59.8806 61.0697 59.9106 61.1997C59.9906 61.6397 59.6106 62.0697 58.2206 63.3197Z" fill="black" stroke="black" stroke-width="0.35" stroke-miterlimit="10" stroke-linecap="round" stroke-linejoin="round"/>
<path d="M64.2404 62.32C63.9504 63.2 63.7504 63.89 63.5904 64.38C63.3104 65.23 63.0504 65.91 62.7904 66.47C62.4104 67.34 61.9304 68.16 61.3404 68.9C60.4604 70.05 59.5504 70.79 58.5904 71.05C58.1404 71.18 56.9804 71.83 56.8804 71.43C56.8004 71.2 55.4804 69.7 55.8404 69.6C56.0104 69.55 56.1704 69.58 56.2904 69.72C56.4104 69.85 56.7204 68.73 56.9104 68.66C57.4904 68.5 58.2904 68.54 59.1104 67.42C60.0404 66.16 62.3604 65.7 62.6204 64.49L62.5704 64.45C62.0504 65.18 61.7104 65.63 61.5704 65.78C61.1204 66.28 60.6904 66.58 60.2404 66.72C59.8804 66.82 59.6104 66.81 59.4304 66.66C59.3304 66.54 59.2204 66.36 59.1504 66.12C59.0004 65.58 59.0704 64.83 59.3704 63.9C59.6304 63.11 59.9704 62.36 60.4104 61.61C60.8804 60.87 61.2004 60.49 61.4204 60.46C61.6504 60.45 61.7804 60.51 61.8304 60.68C61.8704 60.8 61.8204 60.94 61.7204 61.13L61.0504 62.21C60.7904 62.69 60.5304 63.31 60.2704 64.08C60.0204 64.85 59.9304 65.33 59.9904 65.51C60.0504 65.74 60.1004 65.75 60.3704 65.66C60.5304 65.61 60.7804 65.4 61.1204 65.02C61.2104 64.93 61.7904 64.2 62.8604 62.81C63.3704 61.3 63.9704 60.26 64.3704 60.15C64.7204 60.05 64.8804 60.23 64.9504 60.51C64.9904 60.65 64.7504 61.25 64.2404 62.32Z" fill="black" stroke="black" stroke-width="0.35" stroke-miterlimit="10" stroke-linecap="round" stroke-linejoin="round"/>
<path d="M64.2404 62.32C63.9504 63.2 63.7504 63.89 63.5904 64.38C63.3104 65.23 63.0504 65.91 62.7904 66.47C62.4104 67.34 61.9304 68.16 61.3404 68.9C60.4604 70.05 59.5504 70.79 58.5904 71.05C58.1404 71.18 56.9804 71.83 56.8804 71.43C56.8004 71.2 55.4804 69.7 55.8404 69.6C56.0104 69.55 56.1704 69.58 56.2904 69.72C56.4104 69.85 56.7204 68.73 56.9104 68.66C57.4904 68.5 58.2904 68.54 59.1104 67.42C60.0404 66.16 62.3604 65.7 62.6204 64.49L62.5704 64.45C62.0504 65.18 61.7104 65.63 61.5704 65.78C61.1204 66.28 60.6904 66.58 60.2404 66.72C59.8804 66.82 59.6104 66.81 59.4304 66.66C59.3304 66.54 59.2204 66.36 59.1504 66.12C59.0004 65.58 59.0704 64.83 59.3704 63.9C59.6304 63.11 59.9704 62.36 60.4104 61.61C60.8804 60.87 61.2004 60.49 61.4204 60.46C61.6504 60.45 61.7804 60.51 61.8304 60.68C61.8704 60.8 61.8204 60.94 61.7204 61.13L61.0504 62.21C60.7904 62.69 60.5304 63.31 60.2704 64.08C60.0204 64.85 59.9304 65.33 59.9904 65.51C60.0504 65.74 60.1004 65.75 60.3704 65.66C60.5304 65.61 60.7804 65.4 61.1204 65.02C61.2104 64.93 61.7904 64.2 62.8604 62.81C63.3704 61.3 63.9704 60.26 64.3704 60.15C64.7204 60.05 64.8804 60.23 64.9504 60.51C64.9904 60.65 64.7504 61.25 64.2404 62.32Z" fill="black" stroke="black" stroke-width="0.35" stroke-miterlimit="10" stroke-linecap="round" stroke-linejoin="round"/>
<path d="M66.8808 60.2297C66.8808 60.3997 66.7808 60.5697 66.6608 60.8897L66.4608 61.5097C66.2608 62.1897 65.9708 62.7697 65.8708 63.4997C65.8108 63.7297 65.7208 64.2097 65.7808 64.3797C65.8408 64.5097 65.8508 64.5697 66.0008 64.4797C66.0808 64.4297 66.8008 63.6897 67.0408 63.4297C67.6908 62.6997 68.4408 61.9297 68.7108 61.2597C68.8408 60.9897 68.9508 60.7497 69.0508 60.4997C69.1408 60.2697 69.2608 60.0297 69.3808 59.7697C69.4808 59.6697 69.5808 59.6197 69.6908 59.6197C69.8108 59.6097 69.9508 59.6897 70.0208 59.8297C70.1708 60.2997 69.9808 60.7297 69.8208 61.1297L69.6008 61.6297C69.4208 62.1297 69.0108 63.3697 69.0808 63.6597C69.1408 63.8797 69.2308 64.0397 69.3508 64.0097C69.6208 63.9097 70.2508 63.3897 70.5408 63.1197C70.6308 63.0097 70.7808 62.8597 70.8708 62.7597C71.1108 62.4997 71.3508 62.2397 71.4308 62.2397C71.6108 62.2397 71.7808 62.2297 71.8008 62.4897C71.8208 62.8797 71.4608 63.2497 71.3708 63.3297L70.9008 63.8397C70.4908 64.2397 69.8508 64.7497 69.4108 64.8397C68.7308 64.9697 68.4308 64.6797 68.2908 64.2697C68.2408 64.0997 68.1508 63.7097 68.1408 63.4597C67.8208 63.7797 67.7308 63.9397 67.3708 64.2997C67.1608 64.5597 66.0408 65.6497 65.7908 65.6997C65.4108 65.7797 64.9508 65.4697 64.8408 64.6897C64.6508 63.8197 65.4408 61.4897 65.6308 61.0097C65.7908 60.5897 66.0908 59.9397 66.4108 59.8897C66.5708 59.8497 66.9108 59.9097 66.8808 60.2297ZM68.5908 58.6997C67.7708 58.8797 66.7808 58.5197 66.7008 58.1197C66.6408 57.7997 66.7708 57.6897 67.0508 57.6397C67.1208 57.6297 67.2308 57.6797 67.3808 57.7597C67.6708 57.8897 68.0808 58.1097 68.4708 57.9997C69.0208 57.8497 69.5408 57.2197 69.9008 56.7697C70.0808 56.5297 70.2308 56.3497 70.3208 56.3297C70.5608 56.2797 70.6908 56.2597 70.7408 56.6197C70.7708 56.8897 70.0108 58.4097 68.5908 58.6997Z" fill="black" stroke="black" stroke-width="0.35" stroke-miterlimit="10" stroke-linecap="round" stroke-linejoin="round"/>
<path d="M66.8808 60.2297C66.8808 60.3997 66.7808 60.5697 66.6608 60.8897L66.4608 61.5097C66.2608 62.1897 65.9708 62.7697 65.8708 63.4997C65.8108 63.7297 65.7208 64.2097 65.7808 64.3797C65.8408 64.5097 65.8508 64.5697 66.0008 64.4797C66.0808 64.4297 66.8008 63.6897 67.0408 63.4297C67.6908 62.6997 68.4408 61.9297 68.7108 61.2597C68.8408 60.9897 68.9508 60.7497 69.0508 60.4997C69.1408 60.2697 69.2608 60.0297 69.3808 59.7697C69.4808 59.6697 69.5808 59.6197 69.6908 59.6197C69.8108 59.6097 69.9508 59.6897 70.0208 59.8297C70.1708 60.2997 69.9808 60.7297 69.8208 61.1297L69.6008 61.6297C69.4208 62.1297 69.0108 63.3697 69.0808 63.6597C69.1408 63.8797 69.2308 64.0397 69.3508 64.0097C69.6208 63.9097 70.2508 63.3897 70.5408 63.1197C70.6308 63.0097 70.7808 62.8597 70.8708 62.7597C71.1108 62.4997 71.3508 62.2397 71.4308 62.2397C71.6108 62.2397 71.7808 62.2297 71.8008 62.4897C71.8208 62.8797 71.4608 63.2497 71.3708 63.3297L70.9008 63.8397C70.4908 64.2397 69.8508 64.7497 69.4108 64.8397C68.7308 64.9697 68.4308 64.6797 68.2908 64.2697C68.2408 64.0997 68.1508 63.7097 68.1408 63.4597C67.8208 63.7797 67.7308 63.9397 67.3708 64.2997C67.1608 64.5597 66.0408 65.6497 65.7908 65.6997C65.4108 65.7797 64.9508 65.4697 64.8408 64.6897C64.6508 63.8197 65.4408 61.4897 65.6308 61.0097C65.7908 60.5897 66.0908 59.9397 66.4108 59.8897C66.5708 59.8497 66.9108 59.9097 66.8808 60.2297ZM68.5908 58.6997C67.7708 58.8797 66.7808 58.5197 66.7008 58.1197C66.6408 57.7997 66.7708 57.6897 67.0508 57.6397C67.1208 57.6297 67.2308 57.6797 67.3808 57.7597C67.6708 57.8897 68.0808 58.1097 68.4708 57.9997C69.0208 57.8497 69.5408 57.2197 69.9008 56.7697C70.0808 56.5297 70.2308 56.3497 70.3208 56.3297C70.5608 56.2797 70.6908 56.2597 70.7408 56.6197C70.7708 56.8897 70.0108 58.4097 68.5908 58.6997Z" fill="black" stroke="black" stroke-width="0.35" stroke-miterlimit="10" stroke-linecap="round" stroke-linejoin="round"/>
<path d="M73.6407 63.8797C73.3007 63.9497 72.9307 63.6997 72.8607 63.3597C72.8107 63.1197 73.1307 62.8197 73.4407 62.7497C73.7907 62.6797 74.2307 62.8797 74.3007 63.2197C74.3607 63.5197 74.0107 63.8097 73.6407 63.8797ZM75.7307 55.5297C75.6207 56.1997 75.4507 56.8597 75.2607 57.4897C74.9407 58.5197 74.7307 59.1697 74.6307 59.4197C74.3507 60.0997 74.0907 60.4797 73.8407 60.5297C73.6207 60.5697 73.5007 60.4297 73.4507 60.2397C73.4207 60.1097 73.5407 59.6697 73.7807 58.9597C74.1807 57.8097 74.4207 57.1497 74.4607 56.9697C74.5207 56.7897 74.6507 56.1397 74.8607 55.0197C75.0007 54.2997 75.1507 53.9097 75.3207 53.8597C75.5007 53.7797 75.7907 53.8897 75.8407 54.1897C75.8807 54.4097 75.8407 54.8497 75.7307 55.5297Z" fill="black" stroke="black" stroke-width="0.35" stroke-miterlimit="10" stroke-linecap="round" stroke-linejoin="round"/>
<path d="M73.6407 63.8797C73.3007 63.9497 72.9307 63.6997 72.8607 63.3597C72.8107 63.1197 73.1307 62.8197 73.4407 62.7497C73.7907 62.6797 74.2307 62.8797 74.3007 63.2197C74.3607 63.5197 74.0107 63.8097 73.6407 63.8797ZM75.7307 55.5297C75.6207 56.1997 75.4507 56.8597 75.2607 57.4897C74.9407 58.5197 74.7307 59.1697 74.6307 59.4197C74.3507 60.0997 74.0907 60.4797 73.8407 60.5297C73.6207 60.5697 73.5007 60.4297 73.4507 60.2397C73.4207 60.1097 73.5407 59.6697 73.7807 58.9597C74.1807 57.8097 74.4207 57.1497 74.4607 56.9697C74.5207 56.7897 74.6507 56.1397 74.8607 55.0197C75.0007 54.2997 75.1507 53.9097 75.3207 53.8597C75.5007 53.7797 75.7907 53.8897 75.8407 54.1897C75.8807 54.4097 75.8407 54.8497 75.7307 55.5297Z" fill="black" stroke="black" stroke-width="0.35" stroke-miterlimit="10" stroke-linecap="round" stroke-linejoin="round"/>
<path d="M22.7608 69.6899L22.2108 70.5299C22.5108 70.6499 23.1508 71.2399 23.1908 71.8199C23.5108 71.6399 25.0408 70.9299 25.1308 70.9199C25.3508 70.8799 25.4608 71.1099 25.5008 71.3399C25.5108 71.3699 23.8108 72.3299 23.2408 72.7099C22.8108 74.0999 22.4108 74.7999 21.5708 76.1799C20.7308 77.5699 18.8908 79.4399 18.1308 79.6199C17.4708 79.7799 17.0908 79.2999 17.0208 78.8899C16.5508 75.9799 19.9308 73.9899 22.2908 72.3499C22.3108 72.1499 22.2008 71.8799 22.1708 71.7299C22.1608 71.6899 21.8808 71.3699 21.5508 71.2199C21.3108 71.0999 21.1908 71.0299 21.1608 70.8699C21.1508 70.7299 21.4008 70.4699 21.8308 69.8199C22.1608 69.3299 22.4908 68.6799 22.4308 68.2599C22.3908 68.0799 22.2108 67.8399 22.0308 67.8799C21.7308 67.9399 21.4708 68.0999 21.0608 68.4699C20.4108 69.0599 19.8508 69.6299 19.5908 69.6599C19.2908 69.6999 19.1308 69.5999 19.0808 69.3199C19.0508 68.9599 20.2508 68.0299 20.5508 67.7699C21.0508 67.3499 21.8108 66.9999 22.0008 66.9599C22.6108 66.8399 23.1408 67.3899 23.2208 68.0399C23.2608 68.6099 22.9808 69.3499 22.7608 69.6899ZM22.1708 73.3499C21.4208 73.8299 17.5408 76.3799 17.8908 78.5499C17.9108 78.7299 17.9808 78.6999 18.1408 78.6699C18.4108 78.6199 19.9508 77.1299 20.6508 76.1499C21.3608 75.1399 21.8808 74.0299 22.1708 73.3499Z" fill="white"/>
<path d="M30.7904 70.9697C30.3104 71.5497 29.8404 71.8897 29.3804 71.9797C29.0004 72.0597 28.7104 72.0097 28.5104 71.8297C28.3704 71.6897 28.2804 71.5097 28.2404 71.2897C28.1804 70.9797 28.2104 70.5296 28.2704 70.1396L27.0304 71.6696C26.4904 72.2796 26.0104 72.6196 25.6104 72.6996C25.2104 72.7796 24.8404 72.4997 24.7804 72.2197C24.7404 71.9997 24.9004 71.5197 25.2604 70.7897C25.6204 70.0597 26.0504 69.3797 26.5204 68.7297C26.9704 68.1397 27.2804 67.7396 27.4604 67.5196C28.0904 66.7696 28.6104 66.3396 28.9904 66.2696C29.2704 66.2096 29.5404 66.2496 29.7804 66.3896C29.9804 66.2296 30.1704 65.9496 30.2704 65.9296C30.5104 65.8796 30.6504 65.9896 30.7104 66.2696C30.7304 66.3696 30.6904 66.5397 30.5904 66.7197L30.2004 67.3997C29.8204 68.0397 29.5604 68.5796 29.3804 68.9996C29.1004 69.6696 29.0004 70.2096 29.0904 70.6396C29.1404 70.8796 29.2304 71.0397 29.4104 71.0097C29.8104 70.9297 30.2404 70.5696 30.7104 69.9296L31.4804 68.8597C31.5204 68.8097 31.5604 68.7796 31.6004 68.7696C31.7604 68.7396 31.8704 68.8196 31.9104 69.0296C31.9404 69.2096 31.9104 69.3397 31.7704 69.5497C31.1604 70.4397 30.8404 70.9197 30.7904 70.9697ZM28.7604 67.7096C28.7404 67.6196 28.7004 67.5796 28.6304 67.5996C28.3504 67.6596 27.8204 68.2496 27.0704 69.3796C26.3104 70.5096 25.9904 71.1296 26.1204 71.2396C26.2504 71.3496 26.7004 70.9096 27.4704 69.9496C28.2404 68.9696 28.6704 68.3296 28.7504 68.0596C28.7704 67.9396 28.7804 67.8296 28.7604 67.7096Z" fill="white"/>
<path d="M35.6005 68.98C34.9905 69.64 34.4805 70.14 34.0705 70.48C33.4205 70.99 32.8205 71.31 32.2905 71.41C31.7005 71.53 31.1105 71.2 30.9905 70.56C30.9305 70.25 31.0505 69.71 31.3605 68.95C31.7005 68.13 32.1105 67.45 32.5905 66.9C32.9505 66.48 33.3705 66.1 33.8205 65.77C34.2905 65.42 34.6505 65.22 34.9105 65.17C35.4305 65.07 35.5405 65.17 35.6005 65.46C35.6305 65.59 35.5905 65.72 35.4705 65.82C35.2705 66.03 34.5705 66.24 33.9805 66.73C33.6305 67.03 33.2705 67.41 32.9505 67.87C32.6705 68.25 32.4405 68.69 32.2305 69.18C32.0205 69.67 31.9305 70 31.9805 70.23C32.0105 70.39 32.1505 70.47 32.3805 70.44C32.8505 70.35 33.4305 70 34.0905 69.4C34.3105 69.2 34.6405 68.86 35.1205 68.39C35.3605 68.14 35.6905 67.79 35.8305 67.77C36.0205 67.73 36.1405 67.79 36.1705 67.92C36.2105 68.22 36.0005 68.55 35.6005 68.98Z" fill="white"/>
<path d="M36.0202 68.6201C36.0202 68.7601 35.7202 69.3501 35.7602 69.5801C35.8102 69.8201 35.8202 69.8901 36.0002 69.8601C36.3502 69.7901 36.7802 69.4701 37.7702 67.9501C38.1102 67.3501 38.4002 66.6301 39.0602 65.5601C39.5402 64.8101 40.1902 64.2801 40.3502 64.2501C40.5102 64.2201 40.7202 64.3301 40.7502 64.4901C40.8302 64.9201 40.6402 65.5501 40.5202 66.0701L40.2502 67.2401C40.1402 67.7101 39.9102 68.7001 39.9202 68.7501C39.9602 68.9401 40.0302 69.0201 40.1502 69.0001C40.3702 68.8201 40.6702 68.5901 40.9102 68.2701L41.9502 67.0101C42.6702 66.1301 43.1602 64.6901 44.0002 64.5201C44.1602 64.4901 44.2502 64.5501 44.2802 64.7101C44.3602 65.1401 44.1302 65.7201 43.9802 66.2201L43.6202 67.4101C43.4702 67.8701 43.3502 68.3201 43.3602 68.3601C43.4002 68.5501 43.4702 68.6301 43.5802 68.6101C43.6802 68.5901 44.1002 68.2201 44.6302 67.7801C45.1502 67.3201 45.4502 67.1001 45.4902 67.0901C45.6302 67.0501 45.7202 67.1001 45.7602 67.3001C45.8002 67.5201 45.4602 67.9701 44.7202 68.6201C43.9702 69.2701 43.7302 69.5701 43.3302 69.6501C42.9502 69.7301 42.6302 69.3901 42.5402 69.0901C42.3902 68.5401 42.6802 67.7101 43.0202 66.7901C42.5402 67.3901 42.1602 68.0201 41.3302 68.9301C40.6602 69.6601 40.2802 69.9701 39.8802 70.0401C39.5002 70.1201 39.1702 69.7801 39.0902 69.4801C39.0302 69.2301 39.2202 68.1101 39.3002 67.6801C39.3702 67.3401 39.5902 66.5201 39.7302 65.9901L38.4502 68.3401C37.5502 69.9901 36.7902 70.4801 35.9402 70.6701C35.3802 70.7901 35.0202 70.4101 34.9602 70.0801C34.8802 69.6701 35.1002 68.3801 35.6602 68.2701C35.9202 68.2001 36.0202 68.4801 36.0202 68.6201Z" fill="white"/>
<path d="M51.2904 66.9298C50.8104 67.5098 50.3404 67.8498 49.8804 67.9398C49.5004 68.0198 49.2104 67.9598 49.0104 67.7898C48.8704 67.6498 48.7804 67.4698 48.7404 67.2498C48.6804 66.9398 48.7104 66.4898 48.7704 66.0898L47.5304 67.6199C46.9904 68.2299 46.5104 68.5698 46.1104 68.6498C45.7104 68.7298 45.3404 68.4498 45.2804 68.1698C45.2404 67.9498 45.4004 67.4698 45.7604 66.7398C46.1204 66.0098 46.5504 65.3298 47.0204 64.6798C47.4704 64.0898 47.7804 63.6898 47.9604 63.4698C48.5904 62.7198 49.1104 62.2898 49.4904 62.2198C49.7704 62.1598 50.0404 62.1998 50.2804 62.3398C50.4804 62.1798 50.6704 61.8998 50.7704 61.8798C51.0104 61.8298 51.1504 61.9398 51.2104 62.2198C51.2304 62.3198 51.1904 62.4898 51.0904 62.6698L50.7004 63.3398C50.3204 63.9798 50.0604 64.5198 49.8804 64.9398C49.6004 65.6098 49.5004 66.1498 49.5904 66.5798C49.6404 66.8198 49.7304 66.9798 49.9104 66.9498C50.3104 66.8698 50.7404 66.5099 51.2104 65.8699L51.9804 64.7999C52.0204 64.7499 52.0604 64.7198 52.1004 64.7098C52.2604 64.6798 52.3704 64.7598 52.4104 64.9698C52.4404 65.1498 52.4104 65.2798 52.2704 65.4898C51.6604 66.3998 51.3404 66.8698 51.2904 66.9298ZM49.2504 63.6698C49.2304 63.5798 49.1904 63.5398 49.1204 63.5598C48.8404 63.6198 48.3104 64.2098 47.5604 65.3398C46.8004 66.4698 46.4804 67.0798 46.6104 67.1998C46.7404 67.3098 47.1904 66.8699 47.9604 65.9099C48.7304 64.9299 49.1604 64.2898 49.2404 64.0198C49.2604 63.8898 49.2704 63.7898 49.2504 63.6698Z" fill="white"/>
<path d="M57.0702 62.7699L55.1602 64.4999C55.5102 64.9399 55.9402 65.3399 56.4302 65.7099C56.8102 65.9899 57.0002 66.1799 57.0302 66.3099C57.0702 66.5299 57.0102 66.65 56.8302 66.6899C56.4902 66.76 56.1202 66.6599 55.7202 66.4199C55.2602 66.1299 54.8602 65.6999 54.4902 65.1799C53.1102 66.6299 52.3902 67.3699 52.1102 67.4299C51.7102 67.5099 51.6202 67.2999 51.5302 66.8399C51.4602 66.4999 51.6602 65.7299 52.1302 64.4999C52.7402 62.8499 53.5402 61.2999 53.9202 60.7399C54.3102 60.1699 54.5702 59.8499 54.7802 59.8099C54.9702 59.7699 55.0602 59.9099 55.1102 60.1899C55.1302 60.2599 55.1002 60.5899 54.6902 61.2499C54.1302 62.1599 53.5102 63.1799 52.8802 64.8899L52.5702 65.8099C52.9502 65.5399 53.4202 65.1199 53.9702 64.5999C54.4202 64.1599 54.7702 63.8299 55.0002 63.6099L57.1702 61.5599C57.8802 60.8799 58.2802 60.5299 58.3902 60.5099C58.6102 60.4699 58.7302 60.5199 58.7602 60.6499C58.8402 61.0899 58.4602 61.5099 57.0702 62.7699Z" fill="white"/>
<path d="M63.0908 61.7599C62.8008 62.6399 62.6008 63.3299 62.4408 63.8199C62.1608 64.6699 61.9008 65.3499 61.6408 65.9099C61.2608 66.7799 60.7808 67.5999 60.1908 68.3399C59.3108 69.4899 58.4008 70.2299 57.4408 70.4899C56.9908 70.6199 56.4308 70.4299 56.3208 70.0299C56.2408 69.7999 56.2808 69.4399 56.6408 69.3399C56.8108 69.2899 56.9708 69.3199 57.0908 69.4599C57.2108 69.5899 57.3708 69.6299 57.5608 69.5699C58.1408 69.4099 58.8408 68.7599 59.6608 67.6399C60.5908 66.3799 61.1908 65.1499 61.4608 63.9299L61.4108 63.8899C60.8908 64.6199 60.5508 65.0699 60.4108 65.2199C59.9608 65.7199 59.5308 66.0199 59.0808 66.1599C58.7208 66.2599 58.4508 66.2499 58.2708 66.0999C58.1708 65.9799 58.0608 65.7999 57.9908 65.5599C57.8408 65.0199 57.9108 64.2699 58.2108 63.3399C58.4708 62.5499 58.8108 61.7999 59.2508 61.0499C59.7208 60.3099 60.0408 59.9299 60.2608 59.8999C60.4908 59.8899 60.6208 59.9499 60.6708 60.1199C60.7108 60.2399 60.6608 60.3799 60.5608 60.5699L59.8908 61.6499C59.6308 62.1299 59.3708 62.7499 59.1108 63.5199C58.8608 64.2899 58.7708 64.7699 58.8308 64.9499C58.8908 65.1799 58.9408 65.1899 59.2108 65.0999C59.3708 65.0499 59.6208 64.8399 59.9608 64.4599C60.0508 64.3699 60.6308 63.6399 61.7008 62.2499C62.2108 60.7399 62.8108 59.6999 63.2108 59.5899C63.5608 59.4899 63.7208 59.6699 63.7908 59.9499C63.8408 60.0999 63.6008 60.6999 63.0908 61.7599Z" fill="white"/>
<path d="M65.7304 59.6799C65.7304 59.8499 65.6304 60.0199 65.5104 60.3399L65.3104 60.9599C65.1104 61.6399 64.8204 62.2199 64.7204 62.9499C64.6604 63.1799 64.5704 63.6599 64.6304 63.8299C64.6904 63.9599 64.7004 64.0199 64.8504 63.9299C64.9304 63.8799 65.6504 63.1399 65.8904 62.8799C66.5404 62.1499 67.2904 61.3799 67.5604 60.7099C67.6904 60.4399 67.8004 60.1999 67.9004 59.9499C67.9904 59.7199 68.1104 59.4799 68.2304 59.2199C68.3304 59.1199 68.4304 59.0699 68.5404 59.0699C68.6604 59.0599 68.8004 59.1399 68.8704 59.2799C69.0204 59.7499 68.8304 60.1799 68.6704 60.5799L68.4504 61.0799C68.2704 61.5799 67.8604 62.8199 67.9304 63.1099C67.9904 63.3299 68.0804 63.4899 68.2004 63.4599C68.4704 63.3599 69.1004 62.8399 69.3904 62.5699C69.4804 62.4599 69.6304 62.3099 69.7204 62.2099C69.9604 61.9499 70.2004 61.6899 70.2804 61.6899C70.4604 61.6899 70.6304 61.6799 70.6504 61.9399C70.6704 62.3299 70.3104 62.6999 70.2204 62.7799L69.7504 63.2899C69.3404 63.6899 68.7004 64.1999 68.2604 64.2899C67.5804 64.4199 67.2804 64.1299 67.1404 63.7199C67.0904 63.5499 67.0004 63.1599 66.9904 62.9099C66.6704 63.2299 66.5804 63.3899 66.2204 63.7499C66.0104 64.0099 64.8904 65.0999 64.6404 65.1499C64.2604 65.2299 63.8004 64.9199 63.6904 64.1399C63.5004 63.2699 64.2904 60.9399 64.4804 60.4599C64.6404 60.0399 64.9404 59.3899 65.2604 59.3399C65.4304 59.2899 65.7604 59.3499 65.7304 59.6799ZM67.4404 58.1499C66.6204 58.3299 65.6304 57.9699 65.5504 57.5699C65.4904 57.2499 65.6204 57.1399 65.9004 57.0899C65.9704 57.0799 66.0804 57.1299 66.2304 57.2099C66.5204 57.3399 66.9304 57.5599 67.3204 57.4499C67.8704 57.2999 68.3904 56.6699 68.7504 56.2199C68.9304 55.9799 69.0804 55.7999 69.1704 55.7799C69.4104 55.7299 69.5404 55.7099 69.5904 56.0699C69.6304 56.3399 68.8704 57.8499 67.4404 58.1499Z" fill="white"/>
<path d="M72.4903 63.3299C72.1503 63.3999 71.7803 63.1499 71.7103 62.8099C71.6603 62.5699 71.9803 62.2699 72.2903 62.1999C72.6403 62.1299 73.0803 62.3299 73.1503 62.6699C73.2203 62.9699 72.8603 63.2499 72.4903 63.3299ZM74.5803 54.9799C74.4703 55.6499 74.3003 56.3099 74.1103 56.9399C73.7903 57.9699 73.5803 58.6199 73.4803 58.8699C73.2003 59.5499 72.9403 59.9299 72.6903 59.9799C72.4703 60.0199 72.3503 59.8799 72.3003 59.6899C72.2703 59.5599 72.3903 59.1199 72.6303 58.4099C73.0303 57.2599 73.2703 56.5999 73.3103 56.4199C73.3703 56.2399 73.5003 55.5899 73.7103 54.4699C73.8503 53.7499 74.0003 53.3599 74.1703 53.3099C74.3503 53.2299 74.6403 53.3399 74.6903 53.6399C74.7303 53.8599 74.6903 54.2899 74.5803 54.9799Z" fill="white"/>
</svg>
