<svg width="22" height="22" viewBox="0 0 22 22" fill="none" xmlns="http://www.w3.org/2000/svg">
<g id="book">
<g id="Group 49395">
<path id="Icon" d="M10.5661 15.3423C10.5661 18.0068 12.7261 20.1668 15.3907 20.1668C18.0552 20.1668 20.2152 18.0068 20.2152 15.3423C20.2152 12.6777 18.0552 10.5177 15.3907 10.5177C12.7261 10.5177 10.5661 12.6777 10.5661 15.3423ZM10.5661 15.3423C10.5661 14.2559 10.9251 13.2535 11.531 12.4471V3.76332M10.5661 15.3423C10.5661 16.1387 10.7591 16.89 11.1008 17.552C10.2879 18.2387 8.41035 18.7195 6.22401 18.7195C3.29302 18.7195 0.916992 17.8555 0.916992 16.7896V3.76332M11.531 3.76332C11.531 4.82913 9.15499 5.69315 6.22401 5.69315C3.29302 5.69315 0.916992 4.82913 0.916992 3.76332M11.531 3.76332C11.531 2.69751 9.15499 1.8335 6.22401 1.8335C3.29302 1.8335 0.916992 2.69751 0.916992 3.76332M0.916992 12.4475C0.916992 13.5133 3.29302 14.3774 6.22401 14.3774C8.3362 14.3774 10.1602 13.9287 11.0145 13.2791M11.531 8.10543C11.531 9.17124 9.15499 10.0353 6.22401 10.0353C3.29302 10.0353 0.916992 9.17124 0.916992 8.10543" stroke="black" stroke-width="1.8" stroke-linecap="round" stroke-linejoin="round"/>
<path id="&#226;&#130;&#180;" d="M15.3692 18.2366C15.0619 18.2366 14.7924 18.1908 14.5606 18.0992C14.3342 18.0076 14.1429 17.8836 13.9865 17.7273C13.8356 17.5709 13.7197 17.3904 13.6389 17.1855C13.5634 16.9807 13.5257 16.7624 13.5257 16.5306C13.5257 16.4875 13.5257 16.4471 13.5257 16.4093C13.5311 16.3716 13.5365 16.3339 13.5418 16.2961H12.9678V15.5684H13.841L14.884 15.0186H12.9678V14.2909H15.8705C15.8974 14.2101 15.9109 14.1238 15.9109 14.0322C15.9109 13.8004 15.8489 13.6333 15.7249 13.5309C15.6063 13.4285 15.4365 13.3773 15.2155 13.3773C15.0215 13.3773 14.8355 13.4177 14.6576 13.4986C14.4851 13.574 14.3369 13.6818 14.2129 13.822L13.6146 13.07C13.7871 12.8706 14.0189 12.7089 14.31 12.5849C14.6064 12.4609 14.9245 12.3989 15.2641 12.3989C15.539 12.3989 15.7842 12.4394 15.9998 12.5202C16.2154 12.6011 16.396 12.7116 16.5416 12.8517C16.6925 12.9919 16.8057 13.1536 16.8811 13.3368C16.962 13.5201 17.0024 13.7115 17.0024 13.9109C17.0024 13.9702 16.9997 14.0322 16.9943 14.0969C16.989 14.1616 16.9782 14.2262 16.962 14.2909H17.5603V15.0186H16.5982L15.5956 15.5684H17.5603V16.2961H14.6415C14.6253 16.3608 14.6172 16.4282 14.6172 16.4983C14.6172 16.7624 14.6873 16.9591 14.8274 17.0885C14.973 17.2179 15.1697 17.2826 15.4177 17.2826C15.6063 17.2826 15.7869 17.2394 15.9594 17.1532C16.1319 17.0669 16.3152 16.9187 16.5092 16.7085L17.1237 17.4604C16.9351 17.6868 16.6925 17.8728 16.396 18.0183C16.0996 18.1639 15.7573 18.2366 15.3692 18.2366Z" fill="black"/>
</g>
</g>
</svg>
